<svg width="35" height="35" viewBox="0 0 35 35" fill="none" xmlns="http://www.w3.org/2000/svg">
<path d="M30.6244 17.8208C30.6244 9.81458 24.4119 4.375 17.4994 4.375C10.6598 4.375 4.37435 9.69792 4.37435 17.9083C3.49935 18.4042 2.91602 19.3375 2.91602 20.4167V23.3333C2.91602 24.9375 4.22852 26.25 5.83268 26.25H7.29102V17.3542C7.29102 11.7104 11.8556 7.14583 17.4994 7.14583C23.1431 7.14583 27.7077 11.7104 27.7077 17.3542V27.7083H16.041V30.625H27.7077C29.3119 30.625 30.6244 29.3125 30.6244 27.7083V25.9292C31.4848 25.4771 32.0827 24.5875 32.0827 23.5375V20.1833C32.0827 19.1625 31.4848 18.2729 30.6244 17.8208Z" fill="#0A64A8"/>
<path d="M13.1243 20.4167C13.9298 20.4167 14.5827 19.7637 14.5827 18.9583C14.5827 18.1529 13.9298 17.5 13.1243 17.5C12.3189 17.5 11.666 18.1529 11.666 18.9583C11.666 19.7637 12.3189 20.4167 13.1243 20.4167Z" fill="#0A64A8"/>
<path d="M21.8743 20.4167C22.6798 20.4167 23.3327 19.7637 23.3327 18.9583C23.3327 18.1529 22.6798 17.5 21.8743 17.5C21.0689 17.5 20.416 18.1529 20.416 18.9583C20.416 19.7637 21.0689 20.4167 21.8743 20.4167Z" fill="#0A64A8"/>
<path d="M26.2499 16.0854C25.5499 11.9292 21.9333 8.75 17.5729 8.75C13.1541 8.75 8.39993 12.4104 8.7791 18.1562C12.3812 16.6833 15.0937 13.475 15.8666 9.56667C17.777 13.4021 21.6999 16.0417 26.2499 16.0854Z" fill="#0A64A8"/>
</svg>
