<svg width="1920" height="750" viewBox="0 0 1920 750" fill="none" xmlns="http://www.w3.org/2000/svg">
<g clip-path="url(#clip0_422_50)">
<path d="M457.9 600.674C298.1 576.154 168.4 569.763 33.2 673.652C22.2 682.019 11 691.78 0 701.774V743.376C9.4 733.266 19.3 723.621 29.1 715.603C161.8 607.298 290.9 602.417 451.3 621.824C558.5 634.839 664.8 662.264 772 677.952C900.6 696.661 981.7 706.306 1062.7 703.517C967.6 696.661 872.3 683.646 777.3 666.796C670.3 647.854 564.7 617.059 457.9 600.674V600.674Z" fill="#50EA9A"/>
<path d="M0.100098 701.89C10.9001 691.78 22.3001 682.135 33.3001 673.768C168.4 569.763 298.1 576.271 458 600.79C564.8 617.175 670.4 647.97 777.2 666.912C872.2 683.762 967.4 696.661 1062.7 703.517C1223.5 715.138 1384.4 709.56 1545.2 676.092C1670.3 650.178 1792.8 608.344 1909.2 550.356C1912.7 548.613 1916.4 546.754 1920 545.011V0H0.100098V701.89Z" fill="#06185E"/>
</g>
<defs>
<clipPath id="clip0_422_50">
<rect width="1920" height="750" fill="white"/>
</clipPath>
</defs>
</svg>
