<svg width="68" height="68" viewBox="0 0 68 68" fill="none" xmlns="http://www.w3.org/2000/svg">
<g filter="url(#filter0_d_227_1871)">
<rect x="4" width="60" height="60" rx="15" fill="white"/>
<path d="M46.4948 18.6667H21.5052C20.1198 18.6667 19 19.7865 19 21.1667V39.5C19 40.8802 20.1198 42 21.5052 42H46.4948C47.8802 42 49 40.8802 49 39.5V21.1667C49 19.7865 47.8802 18.6667 46.4948 18.6667ZM21.8177 21.1667H46.1823C46.3542 21.1667 46.4948 21.3073 46.4948 21.4792V23.6667H21.5052V21.4792C21.5052 21.3073 21.6458 21.1667 21.8177 21.1667ZM46.1823 39.5H21.8177C21.6458 39.5 21.5052 39.3594 21.5052 39.1875V30.3333H46.4948V39.1875C46.4948 39.3594 46.3542 39.5 46.1823 39.5ZM29 34.2917V36.375C29 36.7188 28.7188 37 28.375 37H24.625C24.2812 37 24 36.7188 24 36.375V34.2917C24 33.9479 24.2812 33.6667 24.625 33.6667H28.375C28.7188 33.6667 29 33.9479 29 34.2917ZM39 34.2917V36.375C39 36.7188 38.7188 37 38.375 37H31.2917C30.9479 37 30.6667 36.7188 30.6667 36.375V34.2917C30.6667 33.9479 30.9479 33.6667 31.2917 33.6667H38.375C38.7188 33.6667 39 33.9479 39 34.2917Z" fill="url(#paint0_linear_227_1871)"/>
</g>
<defs>
<filter id="filter0_d_227_1871" x="0" y="0" width="68" height="68" filterUnits="userSpaceOnUse" color-interpolation-filters="sRGB">
<feFlood flood-opacity="0" result="BackgroundImageFix"/>
<feColorMatrix in="SourceAlpha" type="matrix" values="0 0 0 0 0 0 0 0 0 0 0 0 0 0 0 0 0 0 127 0" result="hardAlpha"/>
<feOffset dy="4"/>
<feGaussianBlur stdDeviation="2"/>
<feComposite in2="hardAlpha" operator="out"/>
<feColorMatrix type="matrix" values="0 0 0 0 0 0 0 0 0 0 0 0 0 0 0 0 0 0 0.25 0"/>
<feBlend mode="normal" in2="BackgroundImageFix" result="effect1_dropShadow_227_1871"/>
<feBlend mode="normal" in="SourceGraphic" in2="effect1_dropShadow_227_1871" result="shape"/>
</filter>
<linearGradient id="paint0_linear_227_1871" x1="34" y1="18.6667" x2="34" y2="42" gradientUnits="userSpaceOnUse">
<stop offset="0.505208" stop-color="#0A64A8"/>
<stop offset="1" stop-color="#90CAF9"/>
</linearGradient>
</defs>
</svg>
