<svg width="35" height="35" viewBox="0 0 35 35" fill="none" xmlns="http://www.w3.org/2000/svg">
<path d="M17.4991 10.4898C13.6197 10.4898 10.4888 13.6206 10.4888 17.5C10.4888 21.3794 13.6197 24.5103 17.4991 24.5103C21.3785 24.5103 24.5093 21.3794 24.5093 17.5C24.5093 13.6206 21.3785 10.4898 17.4991 10.4898ZM17.4991 22.0562C14.9903 22.0562 12.9429 20.0088 12.9429 17.5C12.9429 14.9913 14.9903 12.9439 17.4991 12.9439C20.0079 12.9439 22.0552 14.9913 22.0552 17.5C22.0552 20.0088 20.0079 22.0562 17.4991 22.0562ZM24.7964 8.56889C23.8907 8.56889 23.1592 9.30033 23.1592 10.2061C23.1592 11.1119 23.8907 11.8433 24.7964 11.8433C25.7022 11.8433 26.4336 11.1153 26.4336 10.2061C26.4339 9.99102 26.3917 9.778 26.3096 9.57924C26.2274 9.38049 26.1068 9.1999 25.9547 9.04781C25.8026 8.89573 25.622 8.77515 25.4233 8.69296C25.2245 8.61078 25.0115 8.56862 24.7964 8.56889V8.56889ZM31.1641 17.5C31.1641 15.6133 31.1812 13.7437 31.0752 11.8604C30.9693 9.67289 30.4703 7.73149 28.8707 6.13188C27.2676 4.52885 25.3296 4.03324 23.1421 3.92729C21.2554 3.82133 19.3858 3.83842 17.5025 3.83842C15.6158 3.83842 13.7461 3.82133 11.8628 3.92729C9.67533 4.03324 7.73393 4.53227 6.13432 6.13188C4.53129 7.7349 4.03568 9.67289 3.92973 11.8604C3.82377 13.7471 3.84086 15.6167 3.84086 17.5C3.84086 19.3833 3.82377 21.2564 3.92973 23.1397C4.03568 25.3272 4.53471 27.2686 6.13432 28.8682C7.73735 30.4712 9.67533 30.9668 11.8628 31.0728C13.7496 31.1788 15.6192 31.1617 17.5025 31.1617C19.3892 31.1617 21.2588 31.1788 23.1421 31.0728C25.3296 30.9668 27.271 30.4678 28.8707 28.8682C30.4737 27.2652 30.9693 25.3272 31.0752 23.1397C31.1846 21.2564 31.1641 19.3868 31.1641 17.5V17.5ZM28.1563 25.5596C27.9068 26.1817 27.606 26.6465 27.1241 27.125C26.6421 27.607 26.1807 27.9078 25.5586 28.1573C23.7608 28.8716 19.4917 28.711 17.4991 28.711C15.5064 28.711 11.2339 28.8716 9.43608 28.1607C8.81401 27.9112 8.34916 27.6104 7.87065 27.1285C7.38871 26.6465 7.08793 26.1851 6.83842 25.563C6.12748 23.7618 6.28813 19.4927 6.28813 17.5C6.28813 15.5074 6.12748 11.2349 6.83842 9.43705C7.08793 8.81498 7.38871 8.35014 7.87065 7.87162C8.35258 7.39311 8.81401 7.08891 9.43608 6.8394C11.2339 6.12846 15.5064 6.2891 17.4991 6.2891C19.4917 6.2891 23.7642 6.12846 25.5621 6.8394C26.1841 7.08891 26.649 7.38969 27.1275 7.87162C27.6094 8.35356 27.9102 8.81498 28.1597 9.43705C28.8707 11.2349 28.71 15.5074 28.71 17.5C28.71 19.4927 28.8707 23.7618 28.1563 25.5596Z" fill="#62707E"/>
</svg>
