<svg width="35" height="35" viewBox="0 0 35 35" fill="none" xmlns="http://www.w3.org/2000/svg">
<path d="M32.1733 10.1206C31.999 9.47132 31.6572 8.87921 31.1821 8.40354C30.707 7.92787 30.1154 7.58531 29.4663 7.41016C27.0771 6.76758 17.5 6.76758 17.5 6.76758C17.5 6.76758 7.92285 6.76758 5.53369 7.40674C4.88435 7.58132 4.29237 7.92369 3.81721 8.39945C3.34205 8.87521 3.00043 9.46762 2.82666 10.1172C2.1875 12.5098 2.1875 17.5 2.1875 17.5C2.1875 17.5 2.1875 22.4902 2.82666 24.8794C3.17871 26.1987 4.21777 27.2378 5.53369 27.5898C7.92285 28.2324 17.5 28.2324 17.5 28.2324C17.5 28.2324 27.0771 28.2324 29.4663 27.5898C30.7856 27.2378 31.8213 26.1987 32.1733 24.8794C32.8125 22.4902 32.8125 17.5 32.8125 17.5C32.8125 17.5 32.8125 12.5098 32.1733 10.1206ZM14.458 22.0801V12.9199L22.3877 17.4658L14.458 22.0801Z" fill="#62707E"/>
</svg>
